<svg xmlns="http://www.w3.org/2000/svg" version="1.1" xmlns:xlink="http://www.w3.org/1999/xlink" xmlns:svgjs="http://svgjs.dev/svgjs" width="1000" height="860" viewBox="0 0 1000 860"><g transform="matrix(1,0,0,1,-0.6841365853658203,0.3481825153799605)"><svg viewBox="0 0 287 247" data-background-color="#ffffff" preserveAspectRatio="xMidYMid meet" height="860" width="1000" xmlns="http://www.w3.org/2000/svg" xmlns:xlink="http://www.w3.org/1999/xlink"><g id="tight-bounds" transform="matrix(1,0,0,1,0.19634719999999106,-0.09999874267580822)"><svg viewBox="0 0 286.6073056 247.2" height="247.2" width="286.6073056"><g><svg viewBox="0 0 286.6073056 247.2" height="247.2" width="286.6073056"><g><svg viewBox="0 0 141.0688 247.2" height="247.2" width="141.0688"><g id="textblocktransform"><svg viewBox="0 0 141.0688 247.2" height="247.2" width="141.0688" id="textblock"><g><svg viewBox="0 0 141.0688 247.2" height="247.2" width="141.0688"><g transform="matrix(1,0,0,1,0,0)"><svg width="141.0688" viewBox="2.25 -25.399999618530273 21.399999618530273 37.5" height="247.2" data-palette-color="#755bb4"><path d="M14-25.4Q17.05-25.4 19.23-23.65 21.4-21.9 22.53-18.95 23.65-16 23.65-12.45L23.65-12.45Q23.65-8.9 22.53-5.95 21.4-3 19.23-1.25 17.05 0.5 14 0.5L14 0.5Q12.1 0.5 10.78 0.08 9.45-0.35 8.25-1.3L8.25-1.3 8.25 12.1 2.25 12.1 2.25-25 7.05-25 7.7-22.7Q9.05-24 10.55-24.7 12.05-25.4 14-25.4L14-25.4ZM12.85-4.4Q15.05-4.4 16.3-6.63 17.55-8.85 17.55-12.45L17.55-12.45Q17.55-16.05 16.3-18.28 15.05-20.5 12.85-20.5L12.85-20.5Q10.4-20.5 9.18-18.32 7.95-16.15 7.95-12.45L7.95-12.45Q7.95-8.75 9.18-6.58 10.4-4.4 12.85-4.4L12.85-4.4Z" opacity="1" transform="matrix(1,0,0,1,0,0)" fill="#755bb4" class="wordmark-text-0" data-fill-palette-color="primary" id="text-0"></path></svg></g></svg></g></svg></g></svg></g><g transform="matrix(1,0,0,1,199.4267872,74.36534035803456)"><svg viewBox="0 0 87.18051840000001 98.46931928393086" height="98.46931928393086" width="87.18051840000001"><g><svg xmlns="http://www.w3.org/2000/svg" data-name="Glyph Icon" viewBox="7.210000038146973 4 49.58000183105469 56" x="0" y="0" height="98.46931928393086" width="87.18051840000001" class="icon-icon-0" data-fill-palette-color="accent" id="icon-0"><path d="M49.13 20.84l-16-9.26V4L55.7 17.05ZM32 50.52L16 41.26V22.74l16-9.26 16 9.26V41.26ZM30.91 11.58l-16 9.26L8.3 17.05 30.91 4ZM13.77 22.74V41.26L7.21 45.05V19Zm1.1 20.42l16 9.26V60L8.3 47Zm18.22 9.26l16-9.26L55.7 47 33.09 60ZM50.23 41.26V22.74L56.79 19v26.1Z" fill="#755bb4" data-fill-palette-color="accent"></path></svg></g></svg></g></svg></g><defs></defs></svg><rect width="286.6073056" height="247.2" fill="none" stroke="none" visibility="hidden"></rect></g></svg></g></svg>